<svg xmlns="http://www.w3.org/2000/svg" xmlns:xlink="http://www.w3.org/1999/xlink" width="554pt" height="284pt" viewBox="0 0 554 284"><g id="graph0" class="graph" transform="scale(1 1) rotate(0) translate(4 280)"><title>dependencies</title><polygon fill="#fff" stroke="transparent" points="-4 4 -4 -280 550 -280 550 4 -4 4"/><text x="252.009" y="-42.4" fill="#000" font-family="sans-serif" font-size="14" font-weight="bold" text-anchor="start">Legend</text><polygon fill="#ffffb3" stroke="transparent" points="39 -10 39 -30 59 -30 59 -10 39 -10"/><text x="62.629" y="-15.4" fill="#000" font-family="sans-serif" font-size="14" text-anchor="start">Declarations</text><polygon fill="#8dd3c7" stroke="transparent" points="152 -10 152 -30 172 -30 172 -10 152 -10"/><text x="175.725" y="-15.4" fill="#000" font-family="sans-serif" font-size="14" text-anchor="start">Module</text><polygon fill="#80b1d3" stroke="transparent" points="238 -10 238 -30 258 -30 258 -10 238 -10"/><text x="261.781" y="-15.4" fill="#000" font-family="sans-serif" font-size="14" text-anchor="start">Bootstrap</text><polygon fill="#fdb462" stroke="transparent" points="335 -10 335 -30 355 -30 355 -10 335 -10"/><text x="358.673" y="-15.4" fill="#000" font-family="sans-serif" font-size="14" text-anchor="start">Providers</text><polygon fill="#fb8072" stroke="transparent" points="431 -10 431 -30 451 -30 451 -10 431 -10"/><text x="454.726" y="-15.4" fill="#000" font-family="sans-serif" font-size="14" text-anchor="start">Exports</text><g id="clust1" class="cluster"><title>cluster_MultiFunctionModule</title><polygon fill="none" stroke="#000" stroke-dasharray="1 5" points="8 -70 8 -268 538 -268 538 -70 8 -70"/></g><g id="clust2" class="cluster"><title>cluster_MultiFunctionModule_declarations</title><polygon fill="none" stroke="#000" points="352 -78 352 -130 530 -130 530 -78 352 -78"/></g><g id="clust4" class="cluster"><title>cluster_MultiFunctionModule_imports</title><polygon fill="none" stroke="#000" points="186 -78 186 -130 344 -130 344 -78 186 -78"/></g><g id="clust5" class="cluster"><title>cluster_MultiFunctionModule_exports</title><polygon fill="none" stroke="#000" points="174 -208 174 -260 356 -260 356 -208 174 -208"/></g><g id="clust7" class="cluster"><title>cluster_MultiFunctionModule_providers</title><polygon fill="none" stroke="#000" points="16 -78 16 -130 178 -130 178 -78 16 -78"/></g><g id="node1" class="node"><title>TeamPickerComponent</title><polygon fill="#ffffb3" stroke="#000" points="522.227 -122 359.773 -122 359.773 -86 522.227 -86 522.227 -122"/><text x="441" y="-99.8" fill="#000" font-family="Times,serif" font-size="14" text-anchor="middle">TeamPickerComponent</text></g><g id="node2" class="node"><title>TeamPickerModule</title><polygon fill="#8dd3c7" stroke="#000" points="335.445 -187 332.445 -191 311.445 -191 308.445 -187 194.555 -187 194.555 -151 335.445 -151 335.445 -187"/><text x="265" y="-164.8" fill="#000" font-family="Times,serif" font-size="14" text-anchor="middle">TeamPickerModule</text></g><g id="edge1" class="edge"><title>TeamPickerComponent-&gt;TeamPickerModule</title><path fill="none" stroke="#000" d="M441,-122.1061C441,-141.3391 441,-169 441,-169 441,-169 345.3186,-169 345.3186,-169"/><polygon fill="#000" stroke="#000" points="345.319 -165.5 335.319 -169 345.319 -172.5 345.319 -165.5"/></g><g id="node4" class="node"><title>TeamPickerComponent</title><polygon fill="#fb8072" stroke="#000" points="347.727 -252 182.273 -252 182.273 -216 347.727 -216 347.727 -252"/><text x="265" y="-229.8" fill="#000" font-family="Times,serif" font-size="14" text-anchor="middle">TeamPickerComponent</text></g><g id="edge3" class="edge"><title>TeamPickerModule-&gt;TeamPickerComponent</title><path fill="none" stroke="#000" stroke-dasharray="5 2" d="M265,-187.1061C265,-187.1061 265,-205.991 265,-205.991"/><polygon fill="#000" stroke="#000" points="261.5 -205.991 265 -215.991 268.5 -205.991 261.5 -205.991"/></g><g id="node3" class="node"><title>AutoCompleteModule</title><polygon fill="#8dd3c7" stroke="#000" points="335.985 -122 332.985 -126 311.985 -126 308.985 -122 194.015 -122 194.015 -86 335.985 -86 335.985 -122"/><text x="265" y="-99.8" fill="#000" font-family="Times,serif" font-size="14" text-anchor="middle">AutoCompleteModule</text></g><g id="edge2" class="edge"><title>AutoCompleteModule-&gt;TeamPickerModule</title><path fill="none" stroke="#000" d="M265,-122.1061C265,-122.1061 265,-140.991 265,-140.991"/><polygon fill="#000" stroke="#000" points="261.5 -140.991 265 -150.991 268.5 -140.991 261.5 -140.991"/></g><g id="node5" class="node"><title>SimpleFunction</title><ellipse cx="97" cy="-104" fill="#fdb462" stroke="#000" rx="72.972" ry="18"/><text x="97" y="-99.8" fill="#000" font-family="Times,serif" font-size="14" text-anchor="middle">SimpleFunction</text></g><g id="edge4" class="edge"><title>SimpleFunction-&gt;TeamPickerModule</title><path fill="none" stroke="#000" d="M97,-122.1061C97,-141.3391 97,-169 97,-169 97,-169 184.7263,-169 184.7263,-169"/><polygon fill="#000" stroke="#000" points="184.726 -172.5 194.726 -169 184.726 -165.5 184.726 -172.5"/></g></g></svg>