<svg xmlns="http://www.w3.org/2000/svg" xmlns:xlink="http://www.w3.org/1999/xlink" width="526pt" height="284pt" viewBox="0 0 526 284"><g id="graph0" class="graph" transform="scale(1 1) rotate(0) translate(4 280)"><title>dependencies</title><polygon fill="#fff" stroke="transparent" points="-4 4 -4 -280 522 -280 522 4 -4 4"/><text x="238.009" y="-42.4" fill="#000" font-family="sans-serif" font-size="14" font-weight="bold" text-anchor="start">Legend</text><polygon fill="#ffffb3" stroke="transparent" points="25 -10 25 -30 45 -30 45 -10 25 -10"/><text x="48.629" y="-15.4" fill="#000" font-family="sans-serif" font-size="14" text-anchor="start">Declarations</text><polygon fill="#8dd3c7" stroke="transparent" points="138 -10 138 -30 158 -30 158 -10 138 -10"/><text x="161.725" y="-15.4" fill="#000" font-family="sans-serif" font-size="14" text-anchor="start">Module</text><polygon fill="#80b1d3" stroke="transparent" points="224 -10 224 -30 244 -30 244 -10 224 -10"/><text x="247.781" y="-15.4" fill="#000" font-family="sans-serif" font-size="14" text-anchor="start">Bootstrap</text><polygon fill="#fdb462" stroke="transparent" points="321 -10 321 -30 341 -30 341 -10 321 -10"/><text x="344.673" y="-15.4" fill="#000" font-family="sans-serif" font-size="14" text-anchor="start">Providers</text><polygon fill="#fb8072" stroke="transparent" points="417 -10 417 -30 437 -30 437 -10 417 -10"/><text x="440.726" y="-15.4" fill="#000" font-family="sans-serif" font-size="14" text-anchor="start">Exports</text><g id="clust1" class="cluster"><title>cluster_TeamPickerModule</title><polygon fill="none" stroke="#000" stroke-dasharray="1 5" points="8 -70 8 -268 510 -268 510 -70 8 -70"/></g><g id="clust2" class="cluster"><title>cluster_TeamPickerModule_declarations</title><polygon fill="none" stroke="#000" points="338 -78 338 -130 502 -130 502 -78 338 -78"/></g><g id="clust4" class="cluster"><title>cluster_TeamPickerModule_imports</title><polygon fill="none" stroke="#000" points="172 -78 172 -130 330 -130 330 -78 172 -78"/></g><g id="clust5" class="cluster"><title>cluster_TeamPickerModule_exports</title><polygon fill="none" stroke="#000" points="167 -208 167 -260 335 -260 335 -208 167 -208"/></g><g id="clust7" class="cluster"><title>cluster_TeamPickerModule_providers</title><polygon fill="none" stroke="#000" points="16 -78 16 -130 164 -130 164 -78 16 -78"/></g><g id="node1" class="node"><title>TeamPickerComponent</title><polygon fill="#ffffb3" stroke="#000" points="494.468 -122 345.532 -122 345.532 -86 494.468 -86 494.468 -122"/><text x="420" y="-99.8" fill="#000" font-family="Times,serif" font-size="14" text-anchor="middle">TeamPickerComponent</text></g><g id="node2" class="node"><title>TeamPickerModule</title><polygon fill="#8dd3c7" stroke="#000" points="314.685 -187 311.685 -191 290.685 -191 287.685 -187 187.315 -187 187.315 -151 314.685 -151 314.685 -187"/><text x="251" y="-164.8" fill="#000" font-family="Times,serif" font-size="14" text-anchor="middle">TeamPickerModule</text></g><g id="edge1" class="edge"><title>TeamPickerComponent-&gt;TeamPickerModule</title><path fill="none" stroke="#000" d="M420,-122.1061C420,-141.3391 420,-169 420,-169 420,-169 324.8917,-169 324.8917,-169"/><polygon fill="#000" stroke="#000" points="324.892 -165.5 314.892 -169 324.892 -172.5 324.892 -165.5"/></g><g id="node4" class="node"><title>TeamPickerComponent</title><polygon fill="#fb8072" stroke="#000" points="327.469 -252 174.531 -252 174.531 -216 327.469 -216 327.469 -252"/><text x="251" y="-229.8" fill="#000" font-family="Times,serif" font-size="14" text-anchor="middle">TeamPickerComponent</text></g><g id="edge3" class="edge"><title>TeamPickerModule-&gt;TeamPickerComponent</title><path fill="none" stroke="#000" stroke-dasharray="5 2" d="M251,-187.1061C251,-187.1061 251,-205.991 251,-205.991"/><polygon fill="#000" stroke="#000" points="247.5 -205.991 251 -215.991 254.5 -205.991 247.5 -205.991"/></g><g id="node3" class="node"><title>AutoCompleteModule</title><polygon fill="#8dd3c7" stroke="#000" points="321.985 -122 318.985 -126 297.985 -126 294.985 -122 180.015 -122 180.015 -86 321.985 -86 321.985 -122"/><text x="251" y="-99.8" fill="#000" font-family="Times,serif" font-size="14" text-anchor="middle">AutoCompleteModule</text></g><g id="edge2" class="edge"><title>AutoCompleteModule-&gt;TeamPickerModule</title><path fill="none" stroke="#000" d="M251,-122.1061C251,-122.1061 251,-140.991 251,-140.991"/><polygon fill="#000" stroke="#000" points="247.5 -140.991 251 -150.991 254.5 -140.991 247.5 -140.991"/></g><g id="node5" class="node"><title>PeopleService</title><ellipse cx="90" cy="-104" fill="#fdb462" stroke="#000" rx="66.049" ry="18"/><text x="90" y="-99.8" fill="#000" font-family="Times,serif" font-size="14" text-anchor="middle">PeopleService</text></g><g id="edge4" class="edge"><title>PeopleService-&gt;TeamPickerModule</title><path fill="none" stroke="#000" d="M90,-122.1061C90,-141.3391 90,-169 90,-169 90,-169 177.3685,-169 177.3685,-169"/><polygon fill="#000" stroke="#000" points="177.369 -172.5 187.369 -169 177.369 -165.5 177.369 -172.5"/></g></g></svg>