<svg xmlns="http://www.w3.org/2000/svg" xmlns:xlink="http://www.w3.org/1999/xlink" width="562pt" height="284pt" viewBox="0 0 562 284"><g id="graph0" class="graph" transform="scale(1 1) rotate(0) translate(4 280)"><title>dependencies</title><polygon fill="#fff" stroke="transparent" points="-4 4 -4 -280 558 -280 558 4 -4 4"/><text x="256.009" y="-42.4" fill="#000" font-family="sans-serif" font-size="14" font-weight="bold" text-anchor="start">Legend</text><polygon fill="#ffffb3" stroke="transparent" points="43 -10 43 -30 63 -30 63 -10 43 -10"/><text x="66.629" y="-15.4" fill="#000" font-family="sans-serif" font-size="14" text-anchor="start">Declarations</text><polygon fill="#8dd3c7" stroke="transparent" points="156 -10 156 -30 176 -30 176 -10 156 -10"/><text x="179.725" y="-15.4" fill="#000" font-family="sans-serif" font-size="14" text-anchor="start">Module</text><polygon fill="#80b1d3" stroke="transparent" points="242 -10 242 -30 262 -30 262 -10 242 -10"/><text x="265.781" y="-15.4" fill="#000" font-family="sans-serif" font-size="14" text-anchor="start">Bootstrap</text><polygon fill="#fdb462" stroke="transparent" points="339 -10 339 -30 359 -30 359 -10 339 -10"/><text x="362.673" y="-15.4" fill="#000" font-family="sans-serif" font-size="14" text-anchor="start">Providers</text><polygon fill="#fb8072" stroke="transparent" points="435 -10 435 -30 455 -30 455 -10 435 -10"/><text x="458.726" y="-15.4" fill="#000" font-family="sans-serif" font-size="14" text-anchor="start">Exports</text><g id="clust1" class="cluster"><title>cluster_SimpleFunctionModule</title><polygon fill="none" stroke="#000" stroke-dasharray="1 5" points="8 -70 8 -268 546 -268 546 -70 8 -70"/></g><g id="clust2" class="cluster"><title>cluster_SimpleFunctionModule_declarations</title><polygon fill="none" stroke="#000" points="352 -78 352 -130 538 -130 538 -78 352 -78"/></g><g id="clust4" class="cluster"><title>cluster_SimpleFunctionModule_imports</title><polygon fill="none" stroke="#000" points="186 -78 186 -130 344 -130 344 -78 186 -78"/></g><g id="clust5" class="cluster"><title>cluster_SimpleFunctionModule_exports</title><polygon fill="none" stroke="#000" points="170 -208 170 -260 360 -260 360 -208 170 -208"/></g><g id="clust7" class="cluster"><title>cluster_SimpleFunctionModule_providers</title><polygon fill="none" stroke="#000" points="16 -78 16 -130 178 -130 178 -78 16 -78"/></g><g id="node1" class="node"><title>SimpleFunctionComponent</title><polygon fill="#ffffb3" stroke="#000" points="530.28 -122 359.72 -122 359.72 -86 530.28 -86 530.28 -122"/><text x="445" y="-99.8" fill="#000" font-family="Times,serif" font-size="14" text-anchor="middle">SimpleFunctionComponent</text></g><g id="node2" class="node"><title>SimpleFunctionModule</title><polygon fill="#8dd3c7" stroke="#000" points="339.497 -187 336.497 -191 315.497 -191 312.497 -187 190.503 -187 190.503 -151 339.497 -151 339.497 -187"/><text x="265" y="-164.8" fill="#000" font-family="Times,serif" font-size="14" text-anchor="middle">SimpleFunctionModule</text></g><g id="edge1" class="edge"><title>SimpleFunctionComponent-&gt;SimpleFunctionModule</title><path fill="none" stroke="#000" d="M445,-122.1061C445,-141.3391 445,-169 445,-169 445,-169 349.5122,-169 349.5122,-169"/><polygon fill="#000" stroke="#000" points="349.512 -165.5 339.512 -169 349.512 -172.5 349.512 -165.5"/></g><g id="node4" class="node"><title>SimpleFunctionComponent</title><polygon fill="#fb8072" stroke="#000" points="352.28 -252 177.72 -252 177.72 -216 352.28 -216 352.28 -252"/><text x="265" y="-229.8" fill="#000" font-family="Times,serif" font-size="14" text-anchor="middle">SimpleFunctionComponent</text></g><g id="edge3" class="edge"><title>SimpleFunctionModule-&gt;SimpleFunctionComponent</title><path fill="none" stroke="#000" stroke-dasharray="5 2" d="M265,-187.1061C265,-187.1061 265,-205.991 265,-205.991"/><polygon fill="#000" stroke="#000" points="261.5 -205.991 265 -215.991 268.5 -205.991 261.5 -205.991"/></g><g id="node3" class="node"><title>AutoCompleteModule</title><polygon fill="#8dd3c7" stroke="#000" points="335.985 -122 332.985 -126 311.985 -126 308.985 -122 194.015 -122 194.015 -86 335.985 -86 335.985 -122"/><text x="265" y="-99.8" fill="#000" font-family="Times,serif" font-size="14" text-anchor="middle">AutoCompleteModule</text></g><g id="edge2" class="edge"><title>AutoCompleteModule-&gt;SimpleFunctionModule</title><path fill="none" stroke="#000" d="M265,-122.1061C265,-122.1061 265,-140.991 265,-140.991"/><polygon fill="#000" stroke="#000" points="261.5 -140.991 265 -150.991 268.5 -140.991 261.5 -140.991"/></g><g id="node5" class="node"><title>SimpleFunction</title><ellipse cx="97" cy="-104" fill="#fdb462" stroke="#000" rx="72.972" ry="18"/><text x="97" y="-99.8" fill="#000" font-family="Times,serif" font-size="14" text-anchor="middle">SimpleFunction</text></g><g id="edge4" class="edge"><title>SimpleFunction-&gt;SimpleFunctionModule</title><path fill="none" stroke="#000" d="M97,-122.1061C97,-141.3391 97,-169 97,-169 97,-169 180.3344,-169 180.3344,-169"/><polygon fill="#000" stroke="#000" points="180.334 -172.5 190.334 -169 180.334 -165.5 180.334 -172.5"/></g></g></svg>