<svg xmlns="http://www.w3.org/2000/svg" xmlns:xlink="http://www.w3.org/1999/xlink" width="736" height="284pt" viewBox="0 0 552 284"><g id="graph0" class="graph" transform="scale(1 1) rotate(0) translate(4 280)"><title>dependencies</title><polygon fill="#fff" stroke="transparent" points="-4 4 -4 -280 548 -280 548 4 -4 4"/><text x="251.009" y="-42.4" fill="#000" font-family="sans-serif" font-size="14" font-weight="bold" text-anchor="start">Legend</text><polygon fill="#ffffb3" stroke="transparent" points="38 -10 38 -30 58 -30 58 -10 38 -10"/><text x="61.629" y="-15.4" fill="#000" font-family="sans-serif" font-size="14" text-anchor="start">Declarations</text><polygon fill="#8dd3c7" stroke="transparent" points="151 -10 151 -30 171 -30 171 -10 151 -10"/><text x="174.725" y="-15.4" fill="#000" font-family="sans-serif" font-size="14" text-anchor="start">Module</text><polygon fill="#80b1d3" stroke="transparent" points="237 -10 237 -30 257 -30 257 -10 237 -10"/><text x="260.781" y="-15.4" fill="#000" font-family="sans-serif" font-size="14" text-anchor="start">Bootstrap</text><polygon fill="#fdb462" stroke="transparent" points="334 -10 334 -30 354 -30 354 -10 334 -10"/><text x="357.673" y="-15.4" fill="#000" font-family="sans-serif" font-size="14" text-anchor="start">Providers</text><polygon fill="#fb8072" stroke="transparent" points="430 -10 430 -30 450 -30 450 -10 430 -10"/><text x="453.726" y="-15.4" fill="#000" font-family="sans-serif" font-size="14" text-anchor="start">Exports</text><g id="clust1" class="cluster"><title>cluster_SimpleServiceModule</title><polygon fill="none" stroke="#000" stroke-dasharray="1 5" points="8 -70 8 -268 536 -268 536 -70 8 -70"/></g><g id="clust2" class="cluster"><title>cluster_SimpleServiceModule_declarations</title><polygon fill="none" stroke="#000" points="350 -78 350 -130 528 -130 528 -78 350 -78"/></g><g id="clust4" class="cluster"><title>cluster_SimpleServiceModule_imports</title><polygon fill="none" stroke="#000" points="184 -78 184 -130 342 -130 342 -78 184 -78"/></g><g id="clust5" class="cluster"><title>cluster_SimpleServiceModule_exports</title><polygon fill="none" stroke="#000" points="172 -208 172 -260 354 -260 354 -208 172 -208"/></g><g id="clust7" class="cluster"><title>cluster_SimpleServiceModule_providers</title><polygon fill="none" stroke="#000" points="16 -78 16 -130 176 -130 176 -78 16 -78"/></g><g id="node1" class="node"><title>SimpleServiceComponent</title><polygon fill="#ffffb3" stroke="#000" points="520.479 -122 357.521 -122 357.521 -86 520.479 -86 520.479 -122"/><text x="439" y="-99.8" fill="#000" font-family="Times,serif" font-size="14" text-anchor="middle">SimpleServiceComponent</text></g><g id="node2" class="node"><title>SimpleServiceModule</title><polygon fill="#8dd3c7" stroke="#000" points="333.697 -187 330.697 -191 309.697 -191 306.697 -187 192.304 -187 192.304 -151 333.697 -151 333.697 -187"/><text x="263" y="-164.8" fill="#000" font-family="Times,serif" font-size="14" text-anchor="middle">SimpleServiceModule</text></g><g id="edge1" class="edge"><title>SimpleServiceComponent-&gt;SimpleServiceModule</title><path fill="none" stroke="#000" d="M439,-122.1061C439,-141.3391 439,-169 439,-169 439,-169 343.8252,-169 343.8252,-169"/><polygon fill="#000" stroke="#000" points="343.825 -165.5 333.825 -169 343.825 -172.5 343.825 -165.5"/></g><g id="node4" class="node"><title>SimpleServiceComponent</title><polygon fill="#fb8072" stroke="#000" points="346.48 -252 179.52 -252 179.52 -216 346.48 -216 346.48 -252"/><text x="263" y="-229.8" fill="#000" font-family="Times,serif" font-size="14" text-anchor="middle">SimpleServiceComponent</text></g><g id="edge3" class="edge"><title>SimpleServiceModule-&gt;SimpleServiceComponent</title><path fill="none" stroke="#000" stroke-dasharray="5 2" d="M263,-187.1061C263,-187.1061 263,-205.991 263,-205.991"/><polygon fill="#000" stroke="#000" points="259.5 -205.991 263 -215.991 266.5 -205.991 259.5 -205.991"/></g><g id="node3" class="node"><title>AutoCompleteModule</title><polygon fill="#8dd3c7" stroke="#000" points="333.985 -122 330.985 -126 309.985 -126 306.985 -122 192.015 -122 192.015 -86 333.985 -86 333.985 -122"/><text x="263" y="-99.8" fill="#000" font-family="Times,serif" font-size="14" text-anchor="middle">AutoCompleteModule</text></g><g id="edge2" class="edge"><title>AutoCompleteModule-&gt;SimpleServiceModule</title><path fill="none" stroke="#000" d="M263,-122.1061C263,-122.1061 263,-140.991 263,-140.991"/><polygon fill="#000" stroke="#000" points="259.5 -140.991 263 -150.991 266.5 -140.991 259.5 -140.991"/></g><g id="node5" class="node"><title>CountryService</title><ellipse cx="96" cy="-104" fill="#fdb462" stroke="#000" rx="71.789" ry="18"/><text x="96" y="-99.8" fill="#000" font-family="Times,serif" font-size="14" text-anchor="middle">CountryService</text></g><g id="edge4" class="edge"><title>CountryService-&gt;SimpleServiceModule</title><path fill="none" stroke="#000" d="M96,-122.1061C96,-141.3391 96,-169 96,-169 96,-169 182.177,-169 182.177,-169"/><polygon fill="#000" stroke="#000" points="182.177 -172.5 192.177 -169 182.177 -165.5 182.177 -172.5"/></g></g></svg>