<svg xmlns="http://www.w3.org/2000/svg" xmlns:xlink="http://www.w3.org/1999/xlink" width="672" height="284pt" viewBox="0 0 504 284"><g id="graph0" class="graph" transform="scale(1 1) rotate(0) translate(4 280)"><title>dependencies</title><polygon fill="#fff" stroke="transparent" points="-4 4 -4 -280 500 -280 500 4 -4 4"/><text x="227.009" y="-42.4" fill="#000" font-family="sans-serif" font-size="14" font-weight="bold" text-anchor="start">Legend</text><polygon fill="#ffffb3" stroke="transparent" points="14 -10 14 -30 34 -30 34 -10 14 -10"/><text x="37.629" y="-15.4" fill="#000" font-family="sans-serif" font-size="14" text-anchor="start">Declarations</text><polygon fill="#8dd3c7" stroke="transparent" points="127 -10 127 -30 147 -30 147 -10 127 -10"/><text x="150.725" y="-15.4" fill="#000" font-family="sans-serif" font-size="14" text-anchor="start">Module</text><polygon fill="#80b1d3" stroke="transparent" points="213 -10 213 -30 233 -30 233 -10 213 -10"/><text x="236.781" y="-15.4" fill="#000" font-family="sans-serif" font-size="14" text-anchor="start">Bootstrap</text><polygon fill="#fdb462" stroke="transparent" points="310 -10 310 -30 330 -30 330 -10 310 -10"/><text x="333.673" y="-15.4" fill="#000" font-family="sans-serif" font-size="14" text-anchor="start">Providers</text><polygon fill="#fb8072" stroke="transparent" points="406 -10 406 -30 426 -30 426 -10 406 -10"/><text x="429.726" y="-15.4" fill="#000" font-family="sans-serif" font-size="14" text-anchor="start">Exports</text><g id="clust1" class="cluster"><title>cluster_AutoCompleteModule</title><polygon fill="none" stroke="#000" stroke-dasharray="1 5" points="99 -70 99 -268 397 -268 397 -70 99 -70"/></g><g id="clust2" class="cluster"><title>cluster_AutoCompleteModule_declarations</title><polygon fill="none" stroke="#000" points="110 -78 110 -130 386 -130 386 -78 110 -78"/></g><g id="clust6" class="cluster"><title>cluster_AutoCompleteModule_exports</title><polygon fill="none" stroke="#000" points="107 -208 107 -260 389 -260 389 -208 107 -208"/></g><g id="node1" class="node"><title>AutoCompleteComponent</title><polygon fill="#ffffb3" stroke="#000" points="377.767 -122 214.233 -122 214.233 -86 377.767 -86 377.767 -122"/><text x="296" y="-99.8" fill="#000" font-family="Times,serif" font-size="14" text-anchor="middle">AutoCompleteComponent</text></g><g id="node3" class="node"><title>AutoCompleteModule</title><polygon fill="#8dd3c7" stroke="#000" points="305.985 -187 302.985 -191 281.985 -191 278.985 -187 164.015 -187 164.015 -151 305.985 -151 305.985 -187"/><text x="235" y="-164.8" fill="#000" font-family="Times,serif" font-size="14" text-anchor="middle">AutoCompleteModule</text></g><g id="edge1" class="edge"><title>AutoCompleteComponent-&gt;AutoCompleteModule</title><path fill="none" stroke="#000" d="M260.0544,-122.1061C260.0544,-122.1061 260.0544,-140.991 260.0544,-140.991"/><polygon fill="#000" stroke="#000" points="256.554 -140.991 260.054 -150.991 263.554 -140.991 256.554 -140.991"/></g><g id="node2" class="node"><title>BoldPrefix</title><polygon fill="#ffffb3" stroke="#000" points="195.937 -122 118.063 -122 118.063 -86 195.937 -86 195.937 -122"/><text x="157" y="-99.8" fill="#000" font-family="Times,serif" font-size="14" text-anchor="middle">BoldPrefix</text></g><g id="edge2" class="edge"><title>BoldPrefix-&gt;AutoCompleteModule</title><path fill="none" stroke="#000" d="M179.8629,-122.1061C179.8629,-122.1061 179.8629,-140.991 179.8629,-140.991"/><polygon fill="#000" stroke="#000" points="176.363 -140.991 179.863 -150.991 183.363 -140.991 176.363 -140.991"/></g><g id="node4" class="node"><title>AutoCompleteComponent</title><polygon fill="#fb8072" stroke="#000" points="380.767 -252 213.233 -252 213.233 -216 380.767 -216 380.767 -252"/><text x="297" y="-229.8" fill="#000" font-family="Times,serif" font-size="14" text-anchor="middle">AutoCompleteComponent</text></g><g id="edge3" class="edge"><title>AutoCompleteModule-&gt;AutoCompleteComponent</title><path fill="none" stroke="#000" stroke-dasharray="5 2" d="M259.6794,-187.1061C259.6794,-187.1061 259.6794,-205.991 259.6794,-205.991"/><polygon fill="#000" stroke="#000" points="256.179 -205.991 259.679 -215.991 263.179 -205.991 256.179 -205.991"/></g><g id="node5" class="node"><title>BoldPrefix</title><polygon fill="#fb8072" stroke="#000" points="195.436 -252 114.564 -252 114.564 -216 195.436 -216 195.436 -252"/><text x="155" y="-229.8" fill="#000" font-family="Times,serif" font-size="14" text-anchor="middle">BoldPrefix</text></g><g id="edge4" class="edge"><title>AutoCompleteModule-&gt;BoldPrefix</title><path fill="none" stroke="#000" stroke-dasharray="5 2" d="M179.7379,-187.1061C179.7379,-187.1061 179.7379,-205.991 179.7379,-205.991"/><polygon fill="#000" stroke="#000" points="176.238 -205.991 179.738 -215.991 183.238 -205.991 176.238 -205.991"/></g></g></svg>