<svg xmlns="http://www.w3.org/2000/svg" xmlns:xlink="http://www.w3.org/1999/xlink" width="2138pt" height="374pt" viewBox="0 0 2138 374"><g id="graph0" class="graph" transform="scale(1 1) rotate(0) translate(4 370)"><title>dependencies</title><polygon fill="#fff" stroke="transparent" points="-4 4 -4 -370 2134 -370 2134 4 -4 4"/><text x="1044.009" y="-42.4" fill="#000" font-family="sans-serif" font-size="14" font-weight="bold" text-anchor="start">Legend</text><polygon fill="#ffffb3" stroke="transparent" points="831 -10 831 -30 851 -30 851 -10 831 -10"/><text x="854.629" y="-15.4" fill="#000" font-family="sans-serif" font-size="14" text-anchor="start">Declarations</text><polygon fill="#8dd3c7" stroke="transparent" points="944 -10 944 -30 964 -30 964 -10 944 -10"/><text x="967.725" y="-15.4" fill="#000" font-family="sans-serif" font-size="14" text-anchor="start">Module</text><polygon fill="#80b1d3" stroke="transparent" points="1030 -10 1030 -30 1050 -30 1050 -10 1030 -10"/><text x="1053.781" y="-15.4" fill="#000" font-family="sans-serif" font-size="14" text-anchor="start">Bootstrap</text><polygon fill="#fdb462" stroke="transparent" points="1127 -10 1127 -30 1147 -30 1147 -10 1127 -10"/><text x="1150.673" y="-15.4" fill="#000" font-family="sans-serif" font-size="14" text-anchor="start">Providers</text><polygon fill="#fb8072" stroke="transparent" points="1223 -10 1223 -30 1243 -30 1243 -10 1223 -10"/><text x="1246.726" y="-15.4" fill="#000" font-family="sans-serif" font-size="14" text-anchor="start">Exports</text><g id="clust1" class="cluster"><title>cluster_AppModule</title><polygon fill="none" stroke="#000" stroke-dasharray="1 5" points="8 -70 8 -282 298 -282 298 -70 8 -70"/></g><g id="clust2" class="cluster"><title>cluster_AppModule_declarations</title><polygon fill="none" stroke="#000" points="168 -78 168 -130 290 -130 290 -78 168 -78"/></g><g id="clust4" class="cluster"><title>cluster_AppModule_imports</title><polygon fill="none" stroke="#000" points="16 -78 16 -130 160 -130 160 -78 16 -78"/></g><g id="clust6" class="cluster"><title>cluster_AppModule_bootstrap</title><polygon fill="none" stroke="#000" points="96 -222 96 -274 220 -274 220 -222 96 -222"/></g><g id="clust14" class="cluster"><title>cluster_AutoCompleteModule</title><polygon fill="none" stroke="#000" stroke-dasharray="1 5" points="306 -70 306 -282 604 -282 604 -70 306 -70"/></g><g id="clust15" class="cluster"><title>cluster_AutoCompleteModule_declarations</title><polygon fill="none" stroke="#000" points="320 -78 320 -130 596 -130 596 -78 320 -78"/></g><g id="clust19" class="cluster"><title>cluster_AutoCompleteModule_exports</title><polygon fill="none" stroke="#000" points="314 -222 314 -274 596 -274 596 -222 314 -222"/></g><g id="clust22" class="cluster"><title>cluster_CountryPickerModule</title><polygon fill="none" stroke="#000" stroke-dasharray="1 5" points="612 -138 612 -358 962 -358 962 -138 612 -138"/></g><g id="clust23" class="cluster"><title>cluster_CountryPickerModule_declarations</title><polygon fill="none" stroke="#000" points="620 -146 620 -198 798 -198 798 -146 620 -146"/></g><g id="clust26" class="cluster"><title>cluster_CountryPickerModule_exports</title><polygon fill="none" stroke="#000" points="696 -298 696 -350 878 -350 878 -298 696 -298"/></g><g id="clust28" class="cluster"><title>cluster_CountryPickerModule_providers</title><polygon fill="none" stroke="#000" points="806 -146 806 -198 954 -198 954 -146 806 -146"/></g><g id="clust29" class="cluster"><title>cluster_HomePageModule</title><polygon fill="none" stroke="#000" stroke-dasharray="1 5" points="970 -214 970 -350 1562 -350 1562 -214 970 -214"/></g><g id="clust30" class="cluster"><title>cluster_HomePageModule_declarations</title><polygon fill="none" stroke="#000" points="978 -222 978 -274 1072 -274 1072 -222 978 -222"/></g><g id="clust32" class="cluster"><title>cluster_HomePageModule_imports</title><polygon fill="none" stroke="#000" points="1080 -222 1080 -274 1554 -274 1554 -222 1080 -222"/></g><g id="clust36" class="cluster"><title>cluster_IngredientPickerModule</title><polygon fill="none" stroke="#000" stroke-dasharray="1 5" points="970 -138 970 -206 1562 -206 1562 -138 970 -138"/></g><g id="clust37" class="cluster"><title>cluster_IngredientPickerModule_declarations</title><polygon fill="none" stroke="#000" points="1364 -146 1364 -198 1554 -198 1554 -146 1364 -146"/></g><g id="clust40" class="cluster"><title>cluster_IngredientPickerModule_exports</title><polygon fill="none" stroke="#000" points="1162 -146 1162 -198 1356 -198 1356 -146 1162 -146"/></g><g id="clust42" class="cluster"><title>cluster_IngredientPickerModule_providers</title><polygon fill="none" stroke="#000" points="978 -146 978 -198 1154 -198 1154 -146 978 -146"/></g><g id="clust43" class="cluster"><title>cluster_SimpleServiceModule</title><polygon fill="none" stroke="#000" stroke-dasharray="1 5" points="1570 -138 1570 -206 2122 -206 2122 -138 1570 -138"/></g><g id="clust44" class="cluster"><title>cluster_SimpleServiceModule_declarations</title><polygon fill="none" stroke="#000" points="1936 -146 1936 -198 2114 -198 2114 -146 1936 -146"/></g><g id="clust47" class="cluster"><title>cluster_SimpleServiceModule_exports</title><polygon fill="none" stroke="#000" points="1746 -146 1746 -198 1928 -198 1928 -146 1746 -146"/></g><g id="clust49" class="cluster"><title>cluster_SimpleServiceModule_providers</title><polygon fill="none" stroke="#000" points="1578 -146 1578 -198 1738 -198 1738 -146 1578 -146"/></g><g id="clust50" class="cluster"><title>cluster_TeamPickerModule</title><polygon fill="none" stroke="#000" stroke-dasharray="1 5" points="1570 -290 1570 -358 1926 -358 1926 -290 1570 -290"/></g><g id="clust51" class="cluster"><title>cluster_TeamPickerModule_declarations</title><polygon fill="none" stroke="#000" points="1754 -298 1754 -350 1918 -350 1918 -298 1754 -298"/></g><g id="clust54" class="cluster"><title>cluster_TeamPickerModule_exports</title><polygon fill="none" stroke="#000" points="1578 -298 1578 -350 1746 -350 1746 -298 1578 -298"/></g><g id="node1" class="node"><title>AppComponent</title><polygon fill="#ffffb3" stroke="#000" points="281.94 -122 176.06 -122 176.06 -86 281.94 -86 281.94 -122"/><text x="229" y="-99.8" fill="#000" font-family="Times,serif" font-size="14" text-anchor="middle">AppComponent</text></g><g id="node2" class="node"><title>AppModule</title><polygon fill="#8dd3c7" stroke="#000" points="199.657 -190 196.657 -194 175.657 -194 172.657 -190 116.343 -190 116.343 -154 199.657 -154 199.657 -190"/><text x="158" y="-167.8" fill="#000" font-family="Times,serif" font-size="14" text-anchor="middle">AppModule</text></g><g id="edge1" class="edge"><title>AppComponent-&gt;AppModule</title><path fill="none" stroke="#000" d="M188.0544,-122.2228C188.0544,-122.2228 188.0544,-143.7269 188.0544,-143.7269"/><polygon fill="#000" stroke="#000" points="184.554 -143.727 188.054 -153.727 191.554 -143.727 184.554 -143.727"/></g><g id="node4" class="node"><title>AppComponent</title><polygon fill="#80b1d3" stroke="#000" points="212.439 -266 103.561 -266 103.561 -230 212.439 -230 212.439 -266"/><text x="158" y="-243.8" fill="#000" font-family="Times,serif" font-size="14" text-anchor="middle">AppComponent</text></g><g id="edge3" class="edge"><title>AppModule-&gt;AppComponent</title><path fill="none" stroke="#000" stroke-dasharray="1 5" d="M158,-190.0109C158,-190.0109 158,-219.855 158,-219.855"/><polygon fill="#000" stroke="#000" points="154.5 -219.855 158 -229.855 161.5 -219.855 154.5 -219.855"/></g><g id="node3" class="node"><title>AppRoutingModule</title><polygon fill="#8dd3c7" stroke="#000" points="152.274 -122 149.274 -126 128.274 -126 125.274 -122 23.726 -122 23.726 -86 152.274 -86 152.274 -122"/><text x="88" y="-99.8" fill="#000" font-family="Times,serif" font-size="14" text-anchor="middle">AppRoutingModule</text></g><g id="edge2" class="edge"><title>AppRoutingModule-&gt;AppModule</title><path fill="none" stroke="#000" d="M134.2795,-122.2228C134.2795,-122.2228 134.2795,-143.7269 134.2795,-143.7269"/><polygon fill="#000" stroke="#000" points="130.78 -143.727 134.28 -153.727 137.78 -143.727 130.78 -143.727"/></g><g id="node5" class="node"><title>AutoCompleteComponent</title><polygon fill="#ffffb3" stroke="#000" points="587.767 -122 424.233 -122 424.233 -86 587.767 -86 587.767 -122"/><text x="506" y="-99.8" fill="#000" font-family="Times,serif" font-size="14" text-anchor="middle">AutoCompleteComponent</text></g><g id="node7" class="node"><title>AutoCompleteModule</title><polygon fill="#8dd3c7" stroke="#000" points="585.985 -190 582.985 -194 561.985 -194 558.985 -190 444.015 -190 444.015 -154 585.985 -154 585.985 -190"/><text x="515" y="-167.8" fill="#000" font-family="Times,serif" font-size="14" text-anchor="middle">AutoCompleteModule</text></g><g id="edge4" class="edge"><title>AutoCompleteComponent-&gt;AutoCompleteModule</title><path fill="none" stroke="#000" d="M515,-122.2228C515,-122.2228 515,-143.7269 515,-143.7269"/><polygon fill="#000" stroke="#000" points="511.5 -143.727 515 -153.727 518.5 -143.727 511.5 -143.727"/></g><g id="node6" class="node"><title>BoldPrefix</title><polygon fill="#ffffb3" stroke="#000" points="405.937 -122 328.063 -122 328.063 -86 405.937 -86 405.937 -122"/><text x="367" y="-99.8" fill="#000" font-family="Times,serif" font-size="14" text-anchor="middle">BoldPrefix</text></g><g id="edge5" class="edge"><title>BoldPrefix-&gt;AutoCompleteModule</title><path fill="none" stroke="#000" d="M377.7394,-122.2667C377.7394,-140.5552 377.7394,-166 377.7394,-166 377.7394,-166 433.9573,-166 433.9573,-166"/><polygon fill="#000" stroke="#000" points="433.957 -169.5 443.957 -166 433.957 -162.5 433.957 -169.5"/></g><g id="node8" class="node"><title>AutoCompleteComponent</title><polygon fill="#fb8072" stroke="#000" points="587.767 -266 420.233 -266 420.233 -230 587.767 -230 587.767 -266"/><text x="504" y="-243.8" fill="#000" font-family="Times,serif" font-size="14" text-anchor="middle">AutoCompleteComponent</text></g><g id="edge6" class="edge"><title>AutoCompleteModule-&gt;AutoCompleteComponent</title><path fill="none" stroke="#000" stroke-dasharray="5 2" d="M472.4046,-190.0109C472.4046,-190.0109 472.4046,-219.855 472.4046,-219.855"/><polygon fill="#000" stroke="#000" points="468.905 -219.855 472.405 -229.855 475.905 -219.855 468.905 -219.855"/></g><g id="node9" class="node"><title>BoldPrefix</title><polygon fill="#fb8072" stroke="#000" points="402.436 -266 321.564 -266 321.564 -230 402.436 -230 402.436 -266"/><text x="362" y="-243.8" fill="#000" font-family="Times,serif" font-size="14" text-anchor="middle">BoldPrefix</text></g><g id="edge7" class="edge"><title>AutoCompleteModule-&gt;BoldPrefix</title><path fill="none" stroke="#000" stroke-dasharray="5 2" d="M443.9491,-178C400.4246,-178 353.0106,-178 353.0106,-178 353.0106,-178 353.0106,-219.9733 353.0106,-219.9733"/><polygon fill="#000" stroke="#000" points="349.511 -219.973 353.011 -229.973 356.511 -219.973 349.511 -219.973"/></g><g id="node11" class="node"><title>CountryPickerModule</title><polygon fill="#8dd3c7" stroke="#000" points="857.701 -266 854.701 -270 833.701 -270 830.701 -266 716.299 -266 716.299 -230 857.701 -230 857.701 -266"/><text x="787" y="-243.8" fill="#000" font-family="Times,serif" font-size="14" text-anchor="middle">CountryPickerModule</text></g><g id="edge9" class="edge"><title>AutoCompleteModule-&gt;CountryPickerModule</title><path fill="none" stroke="#000" d="M586.1967,-172C598.6437,-172 607.696,-172 607.696,-172 607.696,-172 607.696,-248 607.696,-248 607.696,-248 706.3917,-248 706.3917,-248"/><polygon fill="#000" stroke="#000" points="706.392 -251.5 716.392 -248 706.392 -244.5 706.392 -251.5"/></g><g id="node16" class="node"><title>IngredientPickerModule</title><polygon fill="#8dd3c7" stroke="#000" points="1386.344 -266 1383.344 -270 1362.344 -270 1359.344 -266 1233.656 -266 1233.656 -230 1386.344 -230 1386.344 -266"/><text x="1310" y="-243.8" fill="#000" font-family="Times,serif" font-size="14" text-anchor="middle">IngredientPickerModule</text></g><g id="edge18" class="edge"><title>AutoCompleteModule-&gt;IngredientPickerModule</title><path fill="none" stroke="#000" d="M529.1985,-190.1097C529.1985,-199.897 529.1985,-210 529.1985,-210 529.1985,-210 1262.1992,-210 1262.1992,-210 1262.1992,-210 1262.1992,-219.8903 1262.1992,-219.8903"/><polygon fill="#000" stroke="#000" points="1258.699 -219.89 1262.199 -229.89 1265.699 -219.89 1258.699 -219.89"/></g><g id="node17" class="node"><title>SimpleServiceModule</title><polygon fill="#8dd3c7" stroke="#000" points="1545.697 -266 1542.697 -270 1521.697 -270 1518.697 -266 1404.303 -266 1404.303 -230 1545.697 -230 1545.697 -266"/><text x="1475" y="-243.8" fill="#000" font-family="Times,serif" font-size="14" text-anchor="middle">SimpleServiceModule</text></g><g id="edge22" class="edge"><title>AutoCompleteModule-&gt;SimpleServiceModule</title><path fill="none" stroke="#000" d="M557.5954,-190.1686C557.5954,-194.0459 557.5954,-197 557.5954,-197 557.5954,-197 1475,-197 1475,-197 1475,-197 1475,-219.8757 1475,-219.8757"/><polygon fill="#000" stroke="#000" points="1471.5 -219.876 1475 -229.876 1478.5 -219.876 1471.5 -219.876"/></g><g id="node18" class="node"><title>TeamPickerModule</title><polygon fill="#8dd3c7" stroke="#000" points="1215.685 -266 1212.685 -270 1191.685 -270 1188.685 -266 1088.315 -266 1088.315 -230 1215.685 -230 1215.685 -266"/><text x="1152" y="-243.8" fill="#000" font-family="Times,serif" font-size="14" text-anchor="middle">TeamPickerModule</text></g><g id="edge26" class="edge"><title>AutoCompleteModule-&gt;TeamPickerModule</title><path fill="none" stroke="#000" d="M500.8015,-190.1871C500.8015,-205.1824 500.8015,-224 500.8015,-224 500.8015,-224 1102.7246,-224 1102.7246,-224 1102.7246,-224 1102.7246,-224.581 1102.7246,-224.581"/><polygon fill="#000" stroke="#000" points="1099.225 -219.81 1102.725 -229.81 1106.225 -219.81 1099.225 -219.81"/></g><g id="node10" class="node"><title>CountryPickerComponent</title><polygon fill="#ffffb3" stroke="#000" points="790.483 -190 627.517 -190 627.517 -154 790.483 -154 790.483 -190"/><text x="709" y="-167.8" fill="#000" font-family="Times,serif" font-size="14" text-anchor="middle">CountryPickerComponent</text></g><g id="edge8" class="edge"><title>CountryPickerComponent-&gt;CountryPickerModule</title><path fill="none" stroke="#000" d="M753.4457,-190.0109C753.4457,-190.0109 753.4457,-219.855 753.4457,-219.855"/><polygon fill="#000" stroke="#000" points="749.946 -219.855 753.446 -229.855 756.946 -219.855 749.946 -219.855"/></g><g id="node12" class="node"><title>CountryPickerComponent</title><polygon fill="#fb8072" stroke="#000" points="870.484 -342 703.516 -342 703.516 -306 870.484 -306 870.484 -342"/><text x="787" y="-319.8" fill="#000" font-family="Times,serif" font-size="14" text-anchor="middle">CountryPickerComponent</text></g><g id="edge10" class="edge"><title>CountryPickerModule-&gt;CountryPickerComponent</title><path fill="none" stroke="#000" stroke-dasharray="5 2" d="M787,-266.0109C787,-266.0109 787,-295.855 787,-295.855"/><polygon fill="#000" stroke="#000" points="783.5 -295.855 787 -305.855 790.5 -295.855 783.5 -295.855"/></g><g id="node15" class="node"><title>HomePageModule</title><polygon fill="#8dd3c7" stroke="#000" points="1212.473 -342 1209.473 -346 1188.473 -346 1185.473 -342 1091.527 -342 1091.527 -306 1212.473 -306 1212.473 -342"/><text x="1152" y="-319.8" fill="#000" font-family="Times,serif" font-size="14" text-anchor="middle">HomePageModule</text></g><g id="edge13" class="edge"><title>CountryPickerModule-&gt;HomePageModule</title><path fill="none" stroke="#000" d="M857.6078,-248C878.3475,-248 895.5858,-248 895.5858,-248 895.5858,-248 895.5858,-330 895.5858,-330 895.5858,-330 1081.2334,-330 1081.2334,-330"/><polygon fill="#000" stroke="#000" points="1081.234 -333.5 1091.233 -330 1081.233 -326.5 1081.234 -333.5"/></g><g id="node13" class="node"><title>PeopleService</title><ellipse cx="880" cy="-172" fill="#fdb462" stroke="#000" rx="66.049" ry="18"/><text x="880" y="-167.8" fill="#000" font-family="Times,serif" font-size="14" text-anchor="middle">PeopleService</text></g><g id="edge11" class="edge"><title>PeopleService-&gt;CountryPickerModule</title><path fill="none" stroke="#000" d="M835.663,-185.5873C835.663,-185.5873 835.663,-219.9574 835.663,-219.9574"/><polygon fill="#000" stroke="#000" points="832.163 -219.957 835.663 -229.957 839.163 -219.958 832.163 -219.957"/></g><g id="edge28" class="edge"><title>PeopleService-&gt;TeamPickerModule</title><path fill="none" stroke="#000" d="M920.93,-186.2383C920.93,-199.4219 920.93,-217 920.93,-217 920.93,-217 1117.0418,-217 1117.0418,-217 1117.0418,-217 1117.0418,-219.9672 1117.0418,-219.9672"/><polygon fill="#000" stroke="#000" points="1113.542 -219.967 1117.042 -229.967 1120.542 -219.967 1113.542 -219.967"/></g><g id="node14" class="node"><title>HomePage</title><polygon fill="#ffffb3" stroke="#000" points="1063.925 -266 986.075 -266 986.075 -230 1063.925 -230 1063.925 -266"/><text x="1025" y="-243.8" fill="#000" font-family="Times,serif" font-size="14" text-anchor="middle">HomePage</text></g><g id="edge12" class="edge"><title>HomePage-&gt;HomePageModule</title><path fill="none" stroke="#000" d="M1025,-266.0267C1025,-286.7672 1025,-318 1025,-318 1025,-318 1081.4756,-318 1081.4756,-318"/><polygon fill="#000" stroke="#000" points="1081.476 -321.5 1091.476 -318 1081.476 -314.5 1081.476 -321.5"/></g><g id="edge14" class="edge"><title>IngredientPickerModule-&gt;HomePageModule</title><path fill="none" stroke="#000" d="M1310,-266.0109C1310,-288.4852 1310,-324 1310,-324 1310,-324 1222.6351,-324 1222.6351,-324"/><polygon fill="#000" stroke="#000" points="1222.635 -320.5 1212.635 -324 1222.635 -327.5 1222.635 -320.5"/></g><g id="node20" class="node"><title>IngredientPickerComponent</title><polygon fill="#fb8072" stroke="#000" points="1348.127 -190 1169.873 -190 1169.873 -154 1348.127 -154 1348.127 -190"/><text x="1259" y="-167.8" fill="#000" font-family="Times,serif" font-size="14" text-anchor="middle">IngredientPickerComponent</text></g><g id="edge19" class="edge"><title>IngredientPickerModule-&gt;IngredientPickerComponent</title><path fill="none" stroke="#000" stroke-dasharray="5 2" d="M1319.4421,-229.9891C1319.4421,-229.9891 1319.4421,-200.145 1319.4421,-200.145"/><polygon fill="#000" stroke="#000" points="1322.942 -200.145 1319.442 -190.145 1315.942 -200.145 1322.942 -200.145"/></g><g id="edge15" class="edge"><title>SimpleServiceModule-&gt;HomePageModule</title><path fill="none" stroke="#000" d="M1475,-266.0263C1475,-290.9773 1475,-333 1475,-333 1475,-333 1222.7538,-333 1222.7538,-333"/><polygon fill="#000" stroke="#000" points="1222.754 -329.5 1212.754 -333 1222.754 -336.5 1222.754 -329.5"/></g><g id="node23" class="node"><title>SimpleServiceComponent</title><polygon fill="#fb8072" stroke="#000" points="1920.48 -190 1753.52 -190 1753.52 -154 1920.48 -154 1920.48 -190"/><text x="1837" y="-167.8" fill="#000" font-family="Times,serif" font-size="14" text-anchor="middle">SimpleServiceComponent</text></g><g id="edge23" class="edge"><title>SimpleServiceModule-&gt;SimpleServiceComponent</title><path fill="none" stroke="#000" stroke-dasharray="5 2" d="M1545.9568,-248C1629.6797,-248 1757.6383,-248 1757.6383,-248 1757.6383,-248 1757.6383,-200.0109 1757.6383,-200.0109"/><polygon fill="#000" stroke="#000" points="1761.138 -200.011 1757.638 -190.011 1754.138 -200.011 1761.138 -200.011"/></g><g id="edge16" class="edge"><title>TeamPickerModule-&gt;HomePageModule</title><path fill="none" stroke="#000" d="M1131.8378,-266.0109C1131.8378,-266.0109 1131.8378,-295.855 1131.8378,-295.855"/><polygon fill="#000" stroke="#000" points="1128.338 -295.855 1131.838 -305.855 1135.338 -295.855 1128.338 -295.855"/></g><g id="node26" class="node"><title>TeamPickerComponent</title><polygon fill="#fb8072" stroke="#000" points="1738.468 -342 1585.532 -342 1585.532 -306 1738.468 -306 1738.468 -342"/><text x="1662" y="-319.8" fill="#000" font-family="Times,serif" font-size="14" text-anchor="middle">TeamPickerComponent</text></g><g id="edge27" class="edge"><title>TeamPickerModule-&gt;TeamPickerComponent</title><path fill="none" stroke="#000" stroke-dasharray="5 2" d="M1215.6848,-248C1221.1119,-248 1224.5852,-248 1224.5852,-248 1224.5852,-248 1224.5852,-315 1224.5852,-315 1224.5852,-315 1575.558,-315 1575.558,-315"/><polygon fill="#000" stroke="#000" points="1575.558 -318.5 1585.558 -315 1575.558 -311.5 1575.558 -318.5"/></g><g id="node19" class="node"><title>IngredientPickerComponent</title><polygon fill="#ffffb3" stroke="#000" points="1546.127 -190 1371.873 -190 1371.873 -154 1546.127 -154 1546.127 -190"/><text x="1459" y="-167.8" fill="#000" font-family="Times,serif" font-size="14" text-anchor="middle">IngredientPickerComponent</text></g><g id="edge17" class="edge"><title>IngredientPickerComponent-&gt;IngredientPickerModule</title><path fill="none" stroke="#000" d="M1379.0543,-190.0109C1379.0543,-190.0109 1379.0543,-219.855 1379.0543,-219.855"/><polygon fill="#000" stroke="#000" points="1375.554 -219.855 1379.054 -229.855 1382.554 -219.855 1375.554 -219.855"/></g><g id="node21" class="node"><title>IngredientService</title><ellipse cx="1066" cy="-172" fill="#fdb462" stroke="#000" rx="79.853" ry="18"/><text x="1066" y="-167.8" fill="#000" font-family="Times,serif" font-size="14" text-anchor="middle">IngredientService</text></g><g id="edge20" class="edge"><title>IngredientService-&gt;IngredientPickerModule</title><path fill="none" stroke="#000" d="M1131.359,-182.478C1131.359,-191.8105 1131.359,-204 1131.359,-204 1131.359,-204 1290.8207,-204 1290.8207,-204 1290.8207,-204 1290.8207,-219.8495 1290.8207,-219.8495"/><polygon fill="#000" stroke="#000" points="1287.321 -219.849 1290.821 -229.85 1294.321 -219.85 1287.321 -219.849"/></g><g id="node22" class="node"><title>SimpleServiceComponent</title><polygon fill="#ffffb3" stroke="#000" points="2106.479 -190 1943.521 -190 1943.521 -154 2106.479 -154 2106.479 -190"/><text x="2025" y="-167.8" fill="#000" font-family="Times,serif" font-size="14" text-anchor="middle">SimpleServiceComponent</text></g><g id="edge21" class="edge"><title>SimpleServiceComponent-&gt;SimpleServiceModule</title><path fill="none" stroke="#000" d="M2025,-190.0263C2025,-214.9773 2025,-257 2025,-257 2025,-257 1555.7769,-257 1555.7769,-257"/><polygon fill="#000" stroke="#000" points="1555.777 -253.5 1545.777 -257 1555.777 -260.5 1555.777 -253.5"/></g><g id="node24" class="node"><title>CountryService</title><ellipse cx="1658" cy="-172" fill="#fdb462" stroke="#000" rx="71.789" ry="18"/><text x="1658" y="-167.8" fill="#000" font-family="Times,serif" font-size="14" text-anchor="middle">CountryService</text></g><g id="edge24" class="edge"><title>CountryService-&gt;SimpleServiceModule</title><path fill="none" stroke="#000" d="M1658,-190.308C1658,-210.1455 1658,-239 1658,-239 1658,-239 1555.7526,-239 1555.7526,-239"/><polygon fill="#000" stroke="#000" points="1555.753 -235.5 1545.753 -239 1555.753 -242.5 1555.753 -235.5"/></g><g id="node25" class="node"><title>TeamPickerComponent</title><polygon fill="#ffffb3" stroke="#000" points="1910.468 -342 1761.532 -342 1761.532 -306 1910.468 -306 1910.468 -342"/><text x="1836" y="-319.8" fill="#000" font-family="Times,serif" font-size="14" text-anchor="middle">TeamPickerComponent</text></g><g id="edge25" class="edge"><title>TeamPickerComponent-&gt;TeamPickerModule</title><path fill="none" stroke="#000" d="M1836,-305.8903C1836,-296.103 1836,-286 1836,-286 1836,-286 1172.1622,-286 1172.1622,-286 1172.1622,-286 1172.1622,-276.1097 1172.1622,-276.1097"/><polygon fill="#000" stroke="#000" points="1175.662 -276.11 1172.162 -266.11 1168.662 -276.11 1175.662 -276.11"/></g></g></svg>