<svg xmlns="http://www.w3.org/2000/svg" xmlns:xlink="http://www.w3.org/1999/xlink" width="775pt" height="211pt" viewBox="0 0 775 211"><g id="graph0" class="graph" transform="scale(1 1) rotate(0) translate(4 207)"><title>dependencies</title><polygon fill="#fff" stroke="transparent" points="-4 4 -4 -207 771 -207 771 4 -4 4"/><text x="362.509" y="-42.4" fill="#000" font-family="sans-serif" font-size="14" font-weight="bold" text-anchor="start">Legend</text><polygon fill="#ffffb3" stroke="transparent" points="149.5 -10 149.5 -30 169.5 -30 169.5 -10 149.5 -10"/><text x="173.129" y="-15.4" fill="#000" font-family="sans-serif" font-size="14" text-anchor="start">Declarations</text><polygon fill="#8dd3c7" stroke="transparent" points="262.5 -10 262.5 -30 282.5 -30 282.5 -10 262.5 -10"/><text x="286.225" y="-15.4" fill="#000" font-family="sans-serif" font-size="14" text-anchor="start">Module</text><polygon fill="#80b1d3" stroke="transparent" points="348.5 -10 348.5 -30 368.5 -30 368.5 -10 348.5 -10"/><text x="372.281" y="-15.4" fill="#000" font-family="sans-serif" font-size="14" text-anchor="start">Bootstrap</text><polygon fill="#fdb462" stroke="transparent" points="445.5 -10 445.5 -30 465.5 -30 465.5 -10 445.5 -10"/><text x="469.173" y="-15.4" fill="#000" font-family="sans-serif" font-size="14" text-anchor="start">Providers</text><polygon fill="#fb8072" stroke="transparent" points="541.5 -10 541.5 -30 561.5 -30 561.5 -10 541.5 -10"/><text x="565.226" y="-15.4" fill="#000" font-family="sans-serif" font-size="14" text-anchor="start">Exports</text><g id="clust1" class="cluster"><title>cluster_HomePageModule</title><polygon fill="none" stroke="#000" stroke-dasharray="1 5" points="8 -70 8 -195 759 -195 759 -70 8 -70"/></g><g id="clust2" class="cluster"><title>cluster_HomePageModule_declarations</title><polygon fill="none" stroke="#000" points="657 -78 657 -130 751 -130 751 -78 657 -78"/></g><g id="clust4" class="cluster"><title>cluster_HomePageModule_imports</title><polygon fill="none" stroke="#000" points="16 -78 16 -130 649 -130 649 -78 16 -78"/></g><g id="node1" class="node"><title>HomePage</title><polygon fill="#ffffb3" stroke="#000" points="742.925 -122 665.075 -122 665.075 -86 742.925 -86 742.925 -122"/><text x="704" y="-99.8" fill="#000" font-family="Times,serif" font-size="14" text-anchor="middle">HomePage</text></g><g id="node2" class="node"><title>HomePageModule</title><polygon fill="#8dd3c7" stroke="#000" points="465.473 -187 462.473 -191 441.473 -191 438.473 -187 344.527 -187 344.527 -151 465.473 -151 465.473 -187"/><text x="405" y="-164.8" fill="#000" font-family="Times,serif" font-size="14" text-anchor="middle">HomePageModule</text></g><g id="edge1" class="edge"><title>HomePage-&gt;HomePageModule</title><path fill="none" stroke="#000" d="M704,-122.2843C704,-143.3211 704,-175 704,-175 704,-175 475.5071,-175 475.5071,-175"/><polygon fill="#000" stroke="#000" points="475.507 -171.5 465.507 -175 475.507 -178.5 475.507 -171.5"/></g><g id="node3" class="node"><title>CountryPickerModule</title><polygon fill="#8dd3c7" stroke="#000" points="640.701 -122 637.701 -126 616.701 -126 613.701 -122 499.299 -122 499.299 -86 640.701 -86 640.701 -122"/><text x="570" y="-99.8" fill="#000" font-family="Times,serif" font-size="14" text-anchor="middle">CountryPickerModule</text></g><g id="edge2" class="edge"><title>CountryPickerModule-&gt;HomePageModule</title><path fill="none" stroke="#000" d="M570,-122.0225C570,-139.3734 570,-163 570,-163 570,-163 475.503,-163 475.503,-163"/><polygon fill="#000" stroke="#000" points="475.503 -159.5 465.503 -163 475.503 -166.5 475.503 -159.5"/></g><g id="node4" class="node"><title>IngredientPickerModule</title><polygon fill="#8dd3c7" stroke="#000" points="481.344 -122 478.344 -126 457.344 -126 454.344 -122 328.656 -122 328.656 -86 481.344 -86 481.344 -122"/><text x="405" y="-99.8" fill="#000" font-family="Times,serif" font-size="14" text-anchor="middle">IngredientPickerModule</text></g><g id="edge3" class="edge"><title>IngredientPickerModule-&gt;HomePageModule</title><path fill="none" stroke="#000" d="M405,-122.1061C405,-122.1061 405,-140.991 405,-140.991"/><polygon fill="#000" stroke="#000" points="401.5 -140.991 405 -150.991 408.5 -140.991 401.5 -140.991"/></g><g id="node5" class="node"><title>SimpleServiceModule</title><polygon fill="#8dd3c7" stroke="#000" points="310.697 -122 307.697 -126 286.697 -126 283.697 -122 169.304 -122 169.304 -86 310.697 -86 310.697 -122"/><text x="240" y="-99.8" fill="#000" font-family="Times,serif" font-size="14" text-anchor="middle">SimpleServiceModule</text></g><g id="edge4" class="edge"><title>SimpleServiceModule-&gt;HomePageModule</title><path fill="none" stroke="#000" d="M240,-122.0225C240,-139.3734 240,-163 240,-163 240,-163 334.497,-163 334.497,-163"/><polygon fill="#000" stroke="#000" points="334.497 -166.5 344.497 -163 334.497 -159.5 334.497 -166.5"/></g><g id="node6" class="node"><title>TeamPickerModule</title><polygon fill="#8dd3c7" stroke="#000" points="151.685 -122 148.685 -126 127.685 -126 124.685 -122 24.315 -122 24.315 -86 151.685 -86 151.685 -122"/><text x="88" y="-99.8" fill="#000" font-family="Times,serif" font-size="14" text-anchor="middle">TeamPickerModule</text></g><g id="edge5" class="edge"><title>TeamPickerModule-&gt;HomePageModule</title><path fill="none" stroke="#000" d="M88,-122.2843C88,-143.3211 88,-175 88,-175 88,-175 334.2543,-175 334.2543,-175"/><polygon fill="#000" stroke="#000" points="334.254 -178.5 344.254 -175 334.254 -171.5 334.254 -178.5"/></g></g></svg>