<svg xmlns="http://www.w3.org/2000/svg" xmlns:xlink="http://www.w3.org/1999/xlink" width="720" height="284pt" viewBox="0 0 540 284"><g id="graph0" class="graph" transform="scale(1 1) rotate(0) translate(4 280)"><title>dependencies</title><polygon fill="#fff" stroke="transparent" points="-4 4 -4 -280 536 -280 536 4 -4 4"/><text x="245.009" y="-42.4" fill="#000" font-family="sans-serif" font-size="14" font-weight="bold" text-anchor="start">Legend</text><polygon fill="#ffffb3" stroke="transparent" points="32 -10 32 -30 52 -30 52 -10 32 -10"/><text x="55.629" y="-15.4" fill="#000" font-family="sans-serif" font-size="14" text-anchor="start">Declarations</text><polygon fill="#8dd3c7" stroke="transparent" points="145 -10 145 -30 165 -30 165 -10 145 -10"/><text x="168.725" y="-15.4" fill="#000" font-family="sans-serif" font-size="14" text-anchor="start">Module</text><polygon fill="#80b1d3" stroke="transparent" points="231 -10 231 -30 251 -30 251 -10 231 -10"/><text x="254.781" y="-15.4" fill="#000" font-family="sans-serif" font-size="14" text-anchor="start">Bootstrap</text><polygon fill="#fdb462" stroke="transparent" points="328 -10 328 -30 348 -30 348 -10 328 -10"/><text x="351.673" y="-15.4" fill="#000" font-family="sans-serif" font-size="14" text-anchor="start">Providers</text><polygon fill="#fb8072" stroke="transparent" points="424 -10 424 -30 444 -30 444 -10 424 -10"/><text x="447.726" y="-15.4" fill="#000" font-family="sans-serif" font-size="14" text-anchor="start">Exports</text><g id="clust1" class="cluster"><title>cluster_CountryPickerModule</title><polygon fill="none" stroke="#000" stroke-dasharray="1 5" points="8 -70 8 -268 524 -268 524 -70 8 -70"/></g><g id="clust2" class="cluster"><title>cluster_CountryPickerModule_declarations</title><polygon fill="none" stroke="#000" points="338 -78 338 -130 516 -130 516 -78 338 -78"/></g><g id="clust4" class="cluster"><title>cluster_CountryPickerModule_imports</title><polygon fill="none" stroke="#000" points="172 -78 172 -130 330 -130 330 -78 172 -78"/></g><g id="clust5" class="cluster"><title>cluster_CountryPickerModule_exports</title><polygon fill="none" stroke="#000" points="160 -208 160 -260 342 -260 342 -208 160 -208"/></g><g id="clust7" class="cluster"><title>cluster_CountryPickerModule_providers</title><polygon fill="none" stroke="#000" points="16 -78 16 -130 164 -130 164 -78 16 -78"/></g><g id="node1" class="node"><title>CountryPickerComponent</title><polygon fill="#ffffb3" stroke="#000" points="508.483 -122 345.517 -122 345.517 -86 508.483 -86 508.483 -122"/><text x="427" y="-99.8" fill="#000" font-family="Times,serif" font-size="14" text-anchor="middle">CountryPickerComponent</text></g><g id="node2" class="node"><title>CountryPickerModule</title><polygon fill="#8dd3c7" stroke="#000" points="321.701 -187 318.701 -191 297.701 -191 294.701 -187 180.299 -187 180.299 -151 321.701 -151 321.701 -187"/><text x="251" y="-164.8" fill="#000" font-family="Times,serif" font-size="14" text-anchor="middle">CountryPickerModule</text></g><g id="edge1" class="edge"><title>CountryPickerComponent-&gt;CountryPickerModule</title><path fill="none" stroke="#000" d="M427,-122.1061C427,-141.3391 427,-169 427,-169 427,-169 331.8252,-169 331.8252,-169"/><polygon fill="#000" stroke="#000" points="331.825 -165.5 321.825 -169 331.825 -172.5 331.825 -165.5"/></g><g id="node4" class="node"><title>CountryPickerComponent</title><polygon fill="#fb8072" stroke="#000" points="334.484 -252 167.516 -252 167.516 -216 334.484 -216 334.484 -252"/><text x="251" y="-229.8" fill="#000" font-family="Times,serif" font-size="14" text-anchor="middle">CountryPickerComponent</text></g><g id="edge3" class="edge"><title>CountryPickerModule-&gt;CountryPickerComponent</title><path fill="none" stroke="#000" stroke-dasharray="5 2" d="M251,-187.1061C251,-187.1061 251,-205.991 251,-205.991"/><polygon fill="#000" stroke="#000" points="247.5 -205.991 251 -215.991 254.5 -205.991 247.5 -205.991"/></g><g id="node3" class="node"><title>AutoCompleteModule</title><polygon fill="#8dd3c7" stroke="#000" points="321.985 -122 318.985 -126 297.985 -126 294.985 -122 180.015 -122 180.015 -86 321.985 -86 321.985 -122"/><text x="251" y="-99.8" fill="#000" font-family="Times,serif" font-size="14" text-anchor="middle">AutoCompleteModule</text></g><g id="edge2" class="edge"><title>AutoCompleteModule-&gt;CountryPickerModule</title><path fill="none" stroke="#000" d="M251,-122.1061C251,-122.1061 251,-140.991 251,-140.991"/><polygon fill="#000" stroke="#000" points="247.5 -140.991 251 -150.991 254.5 -140.991 247.5 -140.991"/></g><g id="node5" class="node"><title>PeopleService</title><ellipse cx="90" cy="-104" fill="#fdb462" stroke="#000" rx="66.049" ry="18"/><text x="90" y="-99.8" fill="#000" font-family="Times,serif" font-size="14" text-anchor="middle">PeopleService</text></g><g id="edge4" class="edge"><title>PeopleService-&gt;CountryPickerModule</title><path fill="none" stroke="#000" d="M90,-122.1061C90,-141.3391 90,-169 90,-169 90,-169 170.3831,-169 170.3831,-169"/><polygon fill="#000" stroke="#000" points="170.383 -172.5 180.383 -169 170.383 -165.5 170.383 -172.5"/></g></g></svg>