<svg xmlns="http://www.w3.org/2000/svg" xmlns:xlink="http://www.w3.org/1999/xlink" width="760" height="284pt" viewBox="0 0 570 284"><g id="graph0" class="graph" transform="scale(1 1) rotate(0) translate(4 280)"><title>dependencies</title><polygon fill="#fff" stroke="transparent" points="-4 4 -4 -280 566 -280 566 4 -4 4"/><text x="260.009" y="-42.4" fill="#000" font-family="sans-serif" font-size="14" font-weight="bold" text-anchor="start">Legend</text><polygon fill="#ffffb3" stroke="transparent" points="47 -10 47 -30 67 -30 67 -10 47 -10"/><text x="70.629" y="-15.4" fill="#000" font-family="sans-serif" font-size="14" text-anchor="start">Declarations</text><polygon fill="#8dd3c7" stroke="transparent" points="160 -10 160 -30 180 -30 180 -10 160 -10"/><text x="183.725" y="-15.4" fill="#000" font-family="sans-serif" font-size="14" text-anchor="start">Module</text><polygon fill="#80b1d3" stroke="transparent" points="246 -10 246 -30 266 -30 266 -10 246 -10"/><text x="269.781" y="-15.4" fill="#000" font-family="sans-serif" font-size="14" text-anchor="start">Bootstrap</text><polygon fill="#fdb462" stroke="transparent" points="343 -10 343 -30 363 -30 363 -10 343 -10"/><text x="366.673" y="-15.4" fill="#000" font-family="sans-serif" font-size="14" text-anchor="start">Providers</text><polygon fill="#fb8072" stroke="transparent" points="439 -10 439 -30 459 -30 459 -10 439 -10"/><text x="462.726" y="-15.4" fill="#000" font-family="sans-serif" font-size="14" text-anchor="start">Exports</text><g id="clust1" class="cluster"><title>cluster_CustomTemplateModule</title><polygon fill="none" stroke="#000" stroke-dasharray="1 5" points="8 -70 8 -268 554 -268 554 -70 8 -70"/></g><g id="clust2" class="cluster"><title>cluster_CustomTemplateModule_declarations</title><polygon fill="none" stroke="#000" points="352 -78 352 -130 546 -130 546 -78 352 -78"/></g><g id="clust4" class="cluster"><title>cluster_CustomTemplateModule_imports</title><polygon fill="none" stroke="#000" points="186 -78 186 -130 344 -130 344 -78 186 -78"/></g><g id="clust5" class="cluster"><title>cluster_CustomTemplateModule_exports</title><polygon fill="none" stroke="#000" points="166 -208 166 -260 364 -260 364 -208 166 -208"/></g><g id="clust7" class="cluster"><title>cluster_CustomTemplateModule_providers</title><polygon fill="none" stroke="#000" points="16 -78 16 -130 178 -130 178 -78 16 -78"/></g><g id="node1" class="node"><title>CountryPickerComponent</title><polygon fill="#ffffb3" stroke="#000" points="537.763 -122 360.237 -122 360.237 -86 537.763 -86 537.763 -122"/><text x="449" y="-99.8" fill="#000" font-family="Times,serif" font-size="14" text-anchor="middle">CountryPickerComponent</text></g><g id="node2" class="node"><title>CountryPickerModule</title><polygon fill="#8dd3c7" stroke="#000" points="342.98 -187 339.98 -191 318.98 -191 315.98 -187 187.02 -187 187.02 -151 342.98 -151 342.98 -187"/><text x="265" y="-164.8" fill="#000" font-family="Times,serif" font-size="14" text-anchor="middle">CountryPickerModule</text></g><g id="edge1" class="edge"><title>CountryPickerComponent-&gt;CountryPickerModule</title><path fill="none" stroke="#000" d="M449,-122.1061C449,-141.3391 449,-169 449,-169 449,-169 353.0326,-169 353.0326,-169"/><polygon fill="#000" stroke="#000" points="353.033 -165.5 343.033 -169 353.033 -172.5 353.033 -165.5"/></g><g id="node4" class="node"><title>CountryPickerComponent</title><polygon fill="#fb8072" stroke="#000" points="355.763 -252 174.237 -252 174.237 -216 355.763 -216 355.763 -252"/><text x="265" y="-229.8" fill="#000" font-family="Times,serif" font-size="14" text-anchor="middle">CountryPickerComponent</text></g><g id="edge3" class="edge"><title>CountryPickerModule-&gt;CountryPickerComponent</title><path fill="none" stroke="#000" stroke-dasharray="5 2" d="M265,-187.1061C265,-187.1061 265,-205.991 265,-205.991"/><polygon fill="#000" stroke="#000" points="261.5 -205.991 265 -215.991 268.5 -205.991 261.5 -205.991"/></g><g id="node3" class="node"><title>AutoCompleteModule</title><polygon fill="#8dd3c7" stroke="#000" points="335.985 -122 332.985 -126 311.985 -126 308.985 -122 194.015 -122 194.015 -86 335.985 -86 335.985 -122"/><text x="265" y="-99.8" fill="#000" font-family="Times,serif" font-size="14" text-anchor="middle">AutoCompleteModule</text></g><g id="edge2" class="edge"><title>AutoCompleteModule-&gt;CountryPickerModule</title><path fill="none" stroke="#000" d="M265,-122.1061C265,-122.1061 265,-140.991 265,-140.991"/><polygon fill="#000" stroke="#000" points="261.5 -140.991 265 -150.991 268.5 -140.991 261.5 -140.991"/></g><g id="node5" class="node"><title>SimpleFunction</title><ellipse cx="97" cy="-104" fill="#fdb462" stroke="#000" rx="72.972" ry="18"/><text x="97" y="-99.8" fill="#000" font-family="Times,serif" font-size="14" text-anchor="middle">SimpleFunction</text></g><g id="edge4" class="edge"><title>SimpleFunction-&gt;CountryPickerModule</title><path fill="none" stroke="#000" d="M97,-122.1061C97,-141.3391 97,-169 97,-169 97,-169 176.9019,-169 176.9019,-169"/><polygon fill="#000" stroke="#000" points="176.902 -172.5 186.902 -169 176.902 -165.5 176.902 -172.5"/></g></g></svg>